PathFileType	4	(X/Y/Z)	/Users/itak/Documents/Research/Walk-IL/dataset/trc/00247_00009.trc
DataRate	CameraRate	NumFrames	NumMarkers	Units	OrigDataRate	OrigDataStartFrame	OrigNumFrames
100.000000	100.000000	4	53	mm	100.000000	373	598
Frame#	Time	RPSI			LPSI			L3			STRN			T10			C7			CLAV			RBAK			LBAK			LSHO			LUPA			LAEL			LAOL			LWTS			LWPS			LFRA			LIFD			LHPS			LHTS			RSHO			RUPA			RAEL			RAOL			RWTS			RWPS			RFRA			RIFD			RHTS			RHPS			RBHD			LFHD			RFHD			LBHD			LHIP			RHIP			RASI			LASI			LKNE			LTHI			LANK			LTIP			LTOE			LMT1			LMT5			LHEE			RKNE			RTHI			RANK			RTIP			RTOE			RMT1			RMT5			RHEE			
		X1	Y1	Z1	X2	Y2	Z2	X3	Y3	Z3	X4	Y4	Z4	X5	Y5	Z5	X6	Y6	Z6	X7	Y7	Z7	X8	Y8	Z8	X9	Y9	Z9	X10	Y10	Z10	X11	Y11	Z11	X12	Y12	Z12	X13	Y13	Z13	X14	Y14	Z14	X15	Y15	Z15	X16	Y16	Z16	X17	Y17	Z17	X18	Y18	Z18	X19	Y19	Z19	X20	Y20	Z20	X21	Y21	Z21	X22	Y22	Z22	X23	Y23	Z23	X24	Y24	Z24	X25	Y25	Z25	X26	Y26	Z26	X27	Y27	Z27	X28	Y28	Z28	X29	Y29	Z29	X30	Y30	Z30	X31	Y31	Z31	X32	Y32	Z32	X33	Y33	Z33	X34	Y34	Z34	X35	Y35	Z35	X36	Y36	Z36	X37	Y37	Z37	X38	Y38	Z38	X39	Y39	Z39	X40	Y40	Z40	X41	Y41	Z41	X42	Y42	Z42	X43	Y43	Z43	X44	Y44	Z44	X45	Y45	Z45	X46	Y46	Z46	X47	Y47	Z47	X48	Y48	Z48	X49	Y49	Z49	X50	Y50	Z50	X51	Y51	Z51	X52	Y52	Z52	X53	Y53	Z53	

374	3.73	-489.8192138671875	1027.174194335938	16.86329650878906	-394.9966125488281	1032.341918945312	-58.21736145019531	-437.9903259277344	1118.220336914062	-28.83621025085449	-273.5899658203125	1293.21142578125	168.8190765380859	-449.3907775878906	1243.22802734375	-20.44208717346191	-399.6469116210938	1501.616455078125	37.35259246826172	-290.7922058105469	1412.1025390625	156.1543426513672	-508.5744934082031	1365.377685546875	26.22344207763672	-333.0186462402344	1466.9970703125	-53.46032333374023	-231.199951171875	1465.355102539062	-26.56206893920898	-201.1813354492188	1351.707763671875	-113.5428771972656	-186.2636260986328	1145.143188476562	-149.9760894775391	-273.3305053710938	1133.245239257812	-162.7531127929688	-163.9057006835938	903.9830932617188	-62.06460571289062	-131.77880859375	890.5542602539062	-140.4774475097656	-164.280029296875	1036.527587890625	-153.9845123291016	-165.1701965332031	710.9581909179688	-74.87471771240234	-124.3073654174805	801.4645385742188	-130.2498779296875	-126.5369644165039	801.6552124023438	-61.56748962402344	-485.6245422363281	1457.645751953125	192.9447479248047	-549.2576904296875	1393.0517578125	222.5675659179688	-591.5783081054688	1110.189697265625	223.9917602539062	-546.3623657226562	1105.970825195312	140.3565216064453	-444.3811950683594	916.0896606445312	308.4494018554688	-525.137451171875	890.804931640625	311.7387390136719	-577.3252563476562	1042.695922851562	254.0238647460938	-403.3511962890625	727.6629638671875	324.5851440429688	-414.59814453125	800.2109375	354.3996887207031	-486.7290649414062	790.995361328125	349.0894470214844	-397.2070007324219	1657.66748046875	94.96877288818359	-210.7966918945312	1686.615600585938	222.0717163085938	-296.16455078125	1684.651611328125	273.5828552246094	-259.2363586425781	1662.635986328125	66.06568908691406	-218.7682342529297	977.8650512695312	-62.16928100585938	-514.9686889648438	985.171142578125	159.0892791748047	-428.0983276367188	1027.589111328125	215.22314453125	-203.8946990966797	1019.934631347656	46.97540664672852	-110.2405014038086	535.43212890625	131.8660430908203	-126.1350631713867	663.76953125	60.83420562744141	-62.20233917236328	46.22978210449219	124.3388900756836	-82.68402862548828	308.3494567871094	114.7172470092773	-5.421826839447021	98.43633270263672	324.7296447753906	-74.25474548339844	75.62205505371094	292.9585876464844	15.07701396942139	64.74498748779297	222.78173828125	-136.8660430908203	42.35349655151367	96.71441650390625	-460.6683959960938	498.1842041015625	98.02473449707031	-478.2350769042969	757.0447387695312	185.5119476318359	-499.8801574707031	37.89573669433594	-64.18878173828125	-444.8480834960938	380.1084899902344	68.55780792236328	-334.1689453125	43.71286773681641	75.61024475097656	-335.302001953125	41.33298873901367	4.588878631591797	-452.1925659179688	38.43351745605469	37.74077606201172	-492.6737670898438	37.94567108154297	-148.7674713134766	
375	3.74	-483.9623413085938	1025.83447265625	21.97335624694824	-388.0927429199219	1030.781982421875	-52.15848159790039	-431.7340698242188	1116.673828125	-23.46419143676758	-268.7823181152344	1291.94189453125	175.1132659912109	-443.1158752441406	1241.720947265625	-15.41938400268555	-393.6962280273438	1500.18994140625	42.32280349731445	-285.7987976074219	1410.821411132812	162.1804962158203	-502.640625	1363.995727539062	30.47768020629883	-326.3848571777344	1465.365966796875	-47.91747665405273	-224.7333831787109	1463.782104492188	-20.14588928222656	-193.8594360351562	1350.018798828125	-106.645133972168	-178.2044830322266	1143.4248046875	-142.5699615478516	-265.4617614746094	1131.293823242188	-156.2362518310547	-156.0758361816406	902.8819580078125	-53.09933471679688	-123.1002426147461	888.9484252929688	-131.0794830322266	-155.9197235107422	1034.761596679688	-145.7909545898438	-156.1660003662109	709.9581298828125	-63.91276550292969	-115.2775497436523	799.9609985351562	-119.9076461791992	-118.1003341674805	800.9109497070312	-51.21712112426758	-480.9351806640625	1456.406616210938	197.3255767822266	-544.8168334960938	1391.8583984375	226.4720306396484	-587.3115844726562	1108.984741210938	227.5531768798828	-540.9243774414062	1104.790649414062	144.4989624023438	-440.8506164550781	914.6962890625	312.9829711914062	-521.6666870117188	889.4683227539062	315.6658325195312	-573.277587890625	1041.458740234375	257.6570739746094	-400.0963134765625	726.2308959960938	329.227294921875	-411.5409851074219	798.7302856445312	359.0371704101562	-483.73876953125	789.6483154296875	352.9853515625	-391.7510070800781	1656.314086914062	99.82881164550781	-206.2175140380859	1685.469482421875	228.0760498046875	-291.9221801757812	1683.565185546875	279.0282287597656	-253.6084747314453	1661.29736328125	71.76721954345703	-212.1983032226562	976.2650146484375	-55.00473785400391	-510.4740905761719	984.0691528320312	163.9101409912109	-423.9141235351562	1026.33837890625	220.6993865966797	-198.1578979492188	1018.463623046875	54.20823669433594	-104.6824417114258	534.0237426757812	138.8796844482422	-119.9679641723633	662.1696166992188	67.25592803955078	-49.18021774291992	45.73250579833984	148.7958068847656	-73.62399291992188	307.3687438964844	129.3887939453125	2.442481994628906	104.3193588256836	348.7310791015625	-65.54435729980469	80.28990173339844	316.0125122070312	25.57247161865234	67.46242523193359	248.515869140625	-123.1858596801758	40.44512557983398	119.6361999511719	-458.9994201660156	497.6100769042969	100.3818588256836	-474.9437561035156	755.913330078125	189.7774963378906	-499.74755859375	38.09414672851562	-64.31470489501953	-443.8742980957031	379.6690673828125	70.21506500244141	-334.3319396972656	43.67787170410156	75.68209075927734	-335.4085998535156	41.48049163818359	4.667178630828857	-452.3291931152344	38.30616760253906	37.80651473999023	-492.5244750976562	38.57298278808594	-148.9263000488281	
376	3.75	-477.9849853515625	1024.420776367188	27.16934776306152	-381.1400756835938	1029.142333984375	-46.05081939697266	-425.3593139648438	1115.031127929688	-18.00610542297363	-263.9494934082031	1290.633056640625	181.4898071289062	-436.7227172851562	1240.112915039062	-10.33069515228271	-387.7013854980469	1498.685546875	47.29275894165039	-280.79345703125	1409.495971679688	168.2575378417969	-496.6159057617188	1362.519409179688	34.72987365722656	-319.6570739746094	1463.642944335938	-42.32083129882812	-218.2011108398438	1462.13427734375	-13.65675258636475	-186.4307556152344	1348.261474609375	-99.65398406982422	-170.0535736083984	1141.622802734375	-135.0572357177734	-257.3794860839844	1129.29833984375	-149.6412048339844	-148.3404083251953	901.6917724609375	-44.09768676757812	-114.4103622436523	887.2466430664062	-121.5953979492188	-147.5031433105469	1032.913452148438	-137.494140625	-147.1906127929688	708.9539794921875	-52.74412155151367	-106.2566146850586	798.3666381835938	-109.4169845581055	-109.716194152832	800.1348876953125	-40.74660491943359	-476.2629699707031	1455.116943359375	201.6674499511719	-540.388671875	1390.615478515625	230.33056640625	-583.0247802734375	1107.729736328125	231.0867156982422	-535.5429077148438	1103.5439453125	148.5785980224609	-437.3742370605469	913.23974609375	317.5724792480469	-518.2445068359375	888.0697021484375	319.6027526855469	-569.2362060546875	1040.167114257812	261.2695617675781	-396.9159851074219	724.7493896484375	333.9573059082031	-408.5665283203125	797.1870727539062	363.7450866699219	-480.8820190429688	788.2515258789062	356.8724365234375	-386.2547302246094	1654.914794921875	104.7043380737305	-201.6056823730469	1684.252563476562	234.1311950683594	-287.6638793945312	1682.412475585938	284.4929809570312	-247.9361419677734	1659.90185546875	77.51592254638672	-205.500732421875	974.5789184570312	-47.65833282470703	-505.9105834960938	982.8926391601562	168.7964019775391	-419.7124633789062	1025.051513671875	226.2684326171875	-192.3447418212891	1016.908203125	61.64072799682617	-99.12129211425781	532.4103393554688	145.9116363525391	-113.7433090209961	660.37060546875	73.69489288330078	-36.96820068359375	45.6841926574707	172.5630340576172	-64.91651153564453	306.5032043457031	143.7654876708984	9.634140968322754	110.5436782836914	371.7301025390625	-57.51346969604492	85.26247406005859	338.1535339355469	35.25361633300781	70.67987823486328	273.3465270996094	-110.2809219360352	38.90983963012695	141.9661407470703	-457.2771301269531	497.0231018066406	102.7835006713867	-471.6759643554688	754.7365112304688	194.1295623779297	-499.5637817382812	38.31601333618164	-64.45948791503906	-442.8538818359375	379.2339172363281	71.90452575683594	-334.5179138183594	43.64938354492188	75.74649810791016	-335.5181579589844	41.62039184570312	4.740670680999756	-452.4736938476562	38.18515014648438	37.8593635559082	-492.3350830078125	39.29285430908203	-149.1187591552734	
377	3.76	-471.8693542480469	1022.946044921875	32.45098876953125	-374.2196350097656	1027.452026367188	-39.94044494628906	-418.8489379882812	1113.296508789062	-12.45555782318115	-259.0967102050781	1289.2939453125	187.9561614990234	-430.2076416015625	1238.40966796875	-5.183304309844971	-381.669189453125	1497.109130859375	52.25912857055664	-275.781005859375	1408.136962890625	174.3863983154297	-490.4869689941406	1360.950927734375	38.9830207824707	-312.8299865722656	1461.838134765625	-36.66609954833984	-211.6045227050781	1460.416259765625	-7.090391635894775	-178.9015350341797	1346.438842773438	-92.55961608886719	-161.8153686523438	1139.737670898438	-127.4252548217773	-249.0349884033203	1127.2568359375	-142.9455261230469	-140.6886596679688	900.4153442382812	-35.05277633666992	-105.7205810546875	885.4535522460938	-112.0248184204102	-139.0332946777344	1030.988159179688	-129.0859375	-138.2523193359375	707.9527587890625	-41.37119293212891	-97.25587463378906	796.6851806640625	-98.77976226806641	-101.3844985961914	799.3217163085938	-30.15914726257324	-471.6167602539062	1453.787963867188	205.9601745605469	-535.9828491210938	1389.333129882812	234.1311950683594	-578.7011108398438	1106.431030273438	234.6006622314453	-530.232666015625	1102.2373046875	152.5952301025391	-433.9443054199219	911.720703125	322.2196350097656	-514.8676147460938	886.622802734375	323.5577697753906	-565.1873779296875	1038.829345703125	264.8700561523438	-393.8321838378906	723.2047119140625	338.7695617675781	-405.668701171875	795.5781860351562	368.5169677734375	-478.1427612304688	786.80712890625	360.781005859375	-380.7200927734375	1653.48095703125	109.5928649902344	-196.9570465087891	1682.973999023438	240.2310638427734	-283.3878479003906	1681.203125	289.9707946777344	-242.2255249023438	1658.456298828125	83.30995178222656	-198.6973266601562	972.836669921875	-40.15008163452148	-501.2411804199219	981.6478881835938	173.7585601806641	-415.4546203613281	1023.734985351562	231.9377136230469	-186.4653015136719	1015.286254882812	69.26781463623047	-93.57882690429688	530.6347045898438	153.0355834960938	-107.4472732543945	658.4051513671875	80.20502471923828	-25.57305717468262	45.98900985717773	195.4743499755859	-56.58205032348633	305.7342529296875	157.8116607666016	16.09648132324219	116.959587097168	393.6372375488281	-50.20314407348633	90.37498474121094	359.2615051269531	44.09364700317383	74.28284454345703	297.1459655761719	-98.14205169677734	37.66962051391602	163.5070190429688	-455.4720458984375	496.4339904785156	105.2483139038086	-468.3941040039062	753.5250244140625	198.5772857666016	-499.3356628417969	38.57209777832031	-64.61618804931641	-441.746826171875	378.8062133789062	73.64755249023438	-334.7195739746094	43.62320327758789	75.80802917480469	-335.6309509277344	41.74975967407227	4.812869071960449	-452.6249694824219	38.06894302368164	37.90266036987305	-492.110595703125	40.12296676635742	-149.3358154296875	
